# Blender v2.68 (sub 0) OBJ File: 'door.blend'
# www.blender.org
mtllib doorL.mtl
o Cube.001_Cube.008
v 0.771644 0.000389 -6.326383
v 0.771645 0.000389 -0.000099
v -0.771521 0.000389 -0.000099
v -0.771522 0.000389 -6.326382
v 0.771644 9.065346 -6.326383
v 0.771645 9.065346 -0.000099
v -0.771521 9.065346 -0.000099
v -0.771522 9.065346 -6.326382
vt 0.842185 0.603204
vt 0.421329 0.603204
vt 0.842185 0.000157
vt 0.421014 0.603204
vt 0.000157 0.603204
vt 0.421014 0.000157
vt 0.999843 0.603204
vt 0.842500 0.603204
vt 0.999843 0.000157
vt 0.000157 0.603519
vt 0.421014 0.603519
vt 0.000157 0.760862
vt 0.421329 0.000157
vt 0.000157 0.000157
vt 0.842500 0.000157
vt 0.421014 0.760862
vn 1.000000 0.000000 -0.000000
vn -1.000000 0.000000 0.000000
vn -0.000000 0.000000 -1.000000
vn 0.000000 1.000000 0.000000
usemtl None
s off
f 5/1/1 6/2/1 1/3/1
f 7/4/2 8/5/2 3/6/2
f 8/7/3 5/8/3 4/9/3
f 8/10/4 7/11/4 5/12/4
f 6/2/1 2/13/1 1/3/1
f 8/5/2 4/14/2 3/6/2
f 5/8/3 1/15/3 4/9/3
f 7/11/4 6/16/4 5/12/4
