# Blender v2.68 (sub 0) OBJ File: 'gate2.blend'
# www.blender.org
mtllib gate.mtl
o Cube.001_Cube.009
v 0.753432 0.004329 5.898136
v 0.753432 0.004329 6.361605
v 1.216901 0.004329 6.361605
v 1.216901 0.004329 5.898136
v 0.753432 6.871072 5.898134
v 0.753432 6.871072 6.361604
v 1.216901 6.871072 6.361604
v 1.216901 6.871072 5.898134
v -1.250092 0.004329 5.901941
v -1.250092 0.004329 6.365410
v -0.786623 0.004329 6.365410
v -0.786623 0.004329 5.901941
v -1.250092 6.871072 5.901939
v -1.250092 6.871072 6.365409
v -0.786623 6.871072 6.365409
v -0.786623 6.871072 5.901939
v -1.985103 6.851853 6.360583
v -1.985103 9.791146 6.360583
v 1.988951 9.791146 6.360583
v 1.988951 6.851853 6.360583
v -1.985103 6.851853 -6.350605
v -1.985103 9.791147 -6.350606
v 1.988951 9.791147 -6.350606
v 1.988951 6.851853 -6.350605
v -1.988252 -0.001921 6.360640
v -1.988252 -0.001921 10.340485
v 1.985801 -0.001921 10.340485
v 1.985801 -0.001921 6.360640
v -1.988252 9.806005 6.360638
v -1.988252 9.806006 10.340484
v 1.985801 9.806006 10.340484
v 1.985801 9.806005 6.360638
v 0.751482 0.003065 -5.887443
v 0.751482 0.003064 -6.350912
v 1.214952 0.003064 -6.350912
v 1.214952 0.003065 -5.887443
v 0.751482 6.869809 -5.887442
v 0.751482 6.869809 -6.350912
v 1.214952 6.869809 -6.350912
v 1.214952 6.869809 -5.887442
v -1.252042 0.003065 -5.891247
v -1.252042 0.003064 -6.354717
v -0.788572 0.003064 -6.354717
v -0.788572 0.003065 -5.891247
v -1.252042 6.869809 -5.891247
v -1.252042 6.869809 -6.354716
v -0.788572 6.869809 -6.354716
v -0.788572 6.869809 -5.891247
v -1.990201 -0.003186 -6.349946
v -1.990201 -0.003186 -10.329792
v 1.983852 -0.003186 -10.329792
v 1.983852 -0.003186 -6.349946
v -1.990201 9.804743 -6.349946
v -1.990201 9.804743 -10.329792
v 1.983852 9.804743 -10.329792
v 1.983852 9.804743 -6.349946
vt 0.689749 0.337103
vt 0.689749 0.351261
vt 0.406134 0.337103
vt 0.689749 0.244535
vt 0.689749 0.258693
vt 0.406134 0.244535
vt 0.405441 0.733618
vt 0.405441 0.747777
vt 0.121826 0.733618
vt 0.689749 0.351954
vt 0.689749 0.366113
vt 0.406134 0.351954
vt 0.689749 0.289089
vt 0.689749 0.303247
vt 0.406134 0.289089
vt 0.689749 0.274238
vt 0.689749 0.288396
vt 0.406134 0.274238
vt 0.689827 0.611348
vt 0.811228 0.611348
vt 0.689827 0.999653
vt 0.811921 0.489254
vt 0.933322 0.489254
vt 0.811921 0.877559
vt 0.406134 0.611348
vt 0.527535 0.611348
vt 0.406134 0.999653
vt 0.811921 0.100078
vt 0.933322 0.100078
vt 0.811921 0.488383
vt 0.405441 0.489077
vt 0.405441 0.610654
vt 0.000347 0.489077
vt 0.811228 0.489254
vt 0.811228 0.610654
vt 0.406134 0.489254
vt 0.405441 0.611348
vt 0.405441 0.732925
vt 0.000347 0.611348
vt 0.405441 0.000347
vt 0.405441 0.121747
vt 0.000347 0.000347
vt 0.527018 0.000347
vt 0.405441 0.748470
vt 0.405441 0.762628
vt 0.121826 0.748470
vt 0.689749 0.259386
vt 0.689749 0.273544
vt 0.406134 0.259386
vt 0.689749 0.307400
vt 0.689749 0.321558
vt 0.406134 0.307400
vt 0.405441 0.763321
vt 0.405441 0.777480
vt 0.121826 0.763321
vt 0.405441 0.778173
vt 0.405441 0.792331
vt 0.121826 0.778173
vt 0.689749 0.322251
vt 0.689749 0.336410
vt 0.406134 0.322251
vt 0.405441 0.366806
vt 0.405441 0.488383
vt 0.000347 0.366806
vt 0.811228 0.366983
vt 0.811228 0.488383
vt 0.406134 0.366983
vt 0.405441 0.244535
vt 0.405441 0.366113
vt 0.000347 0.244535
vt 0.405441 0.122441
vt 0.405441 0.243842
vt 0.000347 0.122441
vt 0.527018 0.122441
vt 0.406134 0.351261
vt 0.406134 0.258693
vt 0.121826 0.747777
vt 0.406134 0.366113
vt 0.406134 0.303247
vt 0.406134 0.288396
vt 0.811228 0.999653
vt 0.933322 0.877559
vt 0.527535 0.999653
vt 0.933322 0.488383
vt 0.000347 0.610654
vt 0.406134 0.610654
vt 0.000347 0.732925
vt 0.000347 0.121748
vt 0.527018 0.121748
vt 0.121826 0.762628
vt 0.406134 0.273544
vt 0.406134 0.321558
vt 0.121826 0.777480
vt 0.121826 0.792331
vt 0.406134 0.336410
vt 0.000347 0.488383
vt 0.406134 0.488383
vt 0.000347 0.366113
vt 0.000347 0.243841
vt 0.527018 0.243842
vn 1.000000 -0.000000 0.000000
vn -1.000000 -0.000000 0.000000
vn -0.000000 0.000000 1.000000
vn -0.000000 -1.000000 -0.000000
vn -0.000000 1.000000 0.000000
vn -0.000000 -0.000000 -1.000000
usemtl Material
s off
f 5/1/1 6/2/1 1/3/1
f 7/4/2 8/5/2 3/6/2
f 8/7/3 5/8/3 4/9/3
f 13/10/1 14/11/1 9/12/1
f 15/13/2 16/14/2 11/15/2
f 16/16/3 13/17/3 12/18/3
f 21/19/1 22/20/1 17/21/1
f 22/22/4 23/23/4 18/24/4
f 23/25/2 24/26/2 19/27/2
f 24/28/5 21/29/5 20/30/5
f 29/31/1 30/32/1 25/33/1
f 30/34/6 31/35/6 26/36/6
f 31/37/2 32/38/2 27/39/2
f 32/40/3 29/41/3 28/42/3
f 32/40/4 31/43/4 29/41/4
f 37/44/2 38/45/2 33/46/2
f 39/47/1 40/48/1 35/49/1
f 40/50/3 37/51/3 36/52/3
f 45/53/2 46/54/2 41/55/2
f 47/56/1 48/57/1 43/58/1
f 48/59/3 45/60/3 44/61/3
f 53/62/2 54/63/2 49/64/2
f 54/65/6 55/66/6 50/67/6
f 55/68/1 56/69/1 51/70/1
f 56/71/3 53/72/3 52/73/3
f 56/71/5 55/74/5 53/72/5
f 6/2/1 2/75/1 1/3/1
f 8/5/2 4/76/2 3/6/2
f 5/8/3 1/77/3 4/9/3
f 14/11/1 10/78/1 9/12/1
f 16/14/2 12/79/2 11/15/2
f 13/17/3 9/80/3 12/18/3
f 22/20/1 18/81/1 17/21/1
f 23/23/4 19/82/4 18/24/4
f 24/26/2 20/83/2 19/27/2
f 21/29/5 17/84/5 20/30/5
f 30/32/1 26/85/1 25/33/1
f 31/35/6 27/86/6 26/36/6
f 32/38/2 28/87/2 27/39/2
f 29/41/3 25/88/3 28/42/3
f 31/43/4 30/89/4 29/41/4
f 38/45/2 34/90/2 33/46/2
f 40/48/1 36/91/1 35/49/1
f 37/51/3 33/92/3 36/52/3
f 46/54/2 42/93/2 41/55/2
f 48/57/1 44/94/1 43/58/1
f 45/60/3 41/95/3 44/61/3
f 54/63/2 50/96/2 49/64/2
f 55/66/6 51/97/6 50/67/6
f 56/69/1 52/98/1 51/70/1
f 53/72/3 49/99/3 52/73/3
f 55/74/5 54/100/5 53/72/5
