# Blender v2.68 (sub 0) OBJ File: 'soldier.blend'
# www.blender.org
mtllib soldier.mtl
o Cylinder
v -0.226935 1.863925 0.000000
v 0.284052 1.994237 0.304459
v -0.248751 2.221172 0.492629
v -0.578044 2.361428 0.000000
v -0.248751 2.221172 -0.492629
v 0.284052 1.994237 -0.304459
v 0.248751 2.572289 0.492629
v -0.284052 2.799224 0.304459
v -0.284052 2.799224 -0.304459
v 0.248751 2.572289 -0.492629
v 0.578044 2.432033 0.000000
v 0.226935 2.929536 0.000000
v 0.033571 1.846976 0.178955
v 0.020749 2.056960 0.468516
v -0.279601 1.980364 0.289558
v 0.033571 1.846976 -0.178955
v 0.333922 1.923573 0.000000
v -0.485979 2.272790 0.289559
v -0.473155 2.062805 0.000000
v -0.485979 2.272790 -0.289559
v -0.279601 1.980364 -0.289558
v 0.020749 2.056960 -0.468516
v 0.506729 2.180902 -0.178956
v 0.506729 2.180902 0.178956
v 0.313175 2.263341 0.468519
v 0.000000 2.396730 0.579121
v -0.313175 2.530120 0.468519
v -0.506729 2.612559 0.178956
v -0.506729 2.612559 -0.178956
v -0.313175 2.530120 -0.468519
v 0.000000 2.396730 -0.579121
v 0.313175 2.263341 -0.468519
v 0.485979 2.520671 0.289559
v -0.020749 2.736501 0.468516
v -0.333922 2.869888 0.000000
v -0.020749 2.736501 -0.468516
v 0.485979 2.520671 -0.289559
v 0.473155 2.730656 0.000000
v 0.279601 2.813097 0.289558
v -0.033571 2.946485 0.178955
v -0.033571 2.946485 -0.178955
v 0.279601 2.813097 -0.289558
v -0.018071 0.000021 -0.514385
v -0.018071 1.851862 -0.514385
v 0.190390 0.000021 -0.472919
v 0.190390 1.851862 -0.472919
v 0.367115 0.000021 -0.354836
v 0.367115 1.851862 -0.354836
v 0.485199 0.000021 -0.178111
v 0.485199 1.851862 -0.178111
v 0.526664 0.000021 0.030350
v 0.526664 1.851862 0.030350
v 0.485199 0.000021 0.238811
v 0.485199 1.851862 0.238811
v 0.367115 0.000021 0.415535
v 0.367115 1.851862 0.415535
v 0.190390 0.000021 0.533619
v 0.190390 1.851862 0.533619
v -0.018071 0.000021 0.575085
v -0.018071 1.851862 0.575085
v -0.226531 0.000021 0.533619
v -0.226531 1.851862 0.533619
v -0.403256 0.000021 0.415536
v -0.403256 1.851862 0.415536
v -0.521340 0.000021 0.238811
v -0.521340 1.851862 0.238811
v -0.562805 0.000021 0.030350
v -0.562805 1.851862 0.030350
v -0.521340 0.000021 -0.178111
v -0.521340 1.851862 -0.178111
v -0.403256 0.000021 -0.354836
v -0.403256 1.851862 -0.354836
v -0.226531 0.000021 -0.472919
v -0.226531 1.851862 -0.472919
vt 0.518901 0.228739
vt 0.473413 0.279830
vt 0.471738 0.204904
vt 0.466736 0.348138
vt 0.473506 0.280066
vt 0.518901 0.339699
vt 0.518901 0.180539
vt 0.566065 0.204904
vt 0.564389 0.279830
vt 0.495067 0.387133
vt 0.434495 0.167414
vt 0.399962 0.226464
vt 0.371849 0.139939
vt 0.518901 0.139989
vt 0.480336 0.152520
vt 0.495067 0.107184
vt 0.603308 0.167414
vt 0.557466 0.152520
vt 0.595213 0.115193
vt 0.571067 0.348138
vt 0.637898 0.333542
vt 0.595213 0.395144
vt 0.442589 0.395144
vt 0.442590 0.115193
vt 0.542735 0.107184
vt 0.665954 0.139939
vt 0.542736 0.387133
vt 0.434495 0.447365
vt 0.480336 0.432470
vt 0.471738 0.484854
vt 0.466736 0.068188
vt 0.399906 0.053592
vt 0.473507 0.000118
vt 0.571066 0.068188
vt 0.518901 0.059750
vt 0.564295 0.000118
vt 0.603307 0.447365
vt 0.637839 0.506415
vt 0.566064 0.484854
vt 0.518901 0.419939
vt 0.557466 0.432470
vt 0.518901 0.460489
vt 0.399904 0.333542
vt 0.564297 0.280067
vt 0.637841 0.226464
vt 0.371849 0.419891
vt 0.665954 0.419891
vt 0.399963 0.506415
vt 0.637896 0.053592
vt 0.518901 0.508689
vt 0.473414 0.559778
vt 0.564388 0.559778
vt 0.209850 0.469959
vt 0.160887 0.207810
vt 0.234278 0.465842
vt 0.199016 0.192735
vt 0.260028 0.471027
vt 0.240180 0.188699
vt 0.289334 0.486884
vt 0.282124 0.186685
vt 0.324627 0.519302
vt 0.325946 0.186151
vt 0.370287 0.584174
vt 0.318548 0.999882
vt 0.323634 0.616129
vt 0.269413 0.993221
vt 0.280411 0.635120
vt 0.221735 0.985224
vt 0.242282 0.643072
vt 0.175169 0.975451
vt 0.207896 0.641814
vt 0.129568 0.963674
vt 0.176642 0.630816
vt 0.084822 0.949906
vt 0.149496 0.606992
vt 0.040733 0.934475
vt 0.132643 0.565399
vt 0.000118 0.247028
vt 0.137839 0.522288
vt 0.039615 0.231797
vt 0.162736 0.499529
vt 0.228525 0.163857
vt 0.188258 0.483870
vt 0.119417 0.207676
vt 0.079331 0.218603
vt 0.371612 0.186303
vt 0.000118 0.919264
vt 0.081444 0.191464
vt 0.052566 0.161955
vt 0.037179 0.123641
vt 0.037626 0.082355
vt 0.053837 0.044383
vt 0.083346 0.015505
vt 0.245183 0.084599
vt 0.200918 0.016776
vt 0.229796 0.046285
vt 0.162946 0.000565
vt 0.244737 0.125885
vt 0.121660 0.000118
vn -0.275538 -0.908183 0.315090
vn 0.384929 -0.883170 0.268032
vn -0.616328 -0.763031 0.194737
vn -0.616328 -0.763031 -0.194737
vn -0.275538 -0.908183 -0.315090
vn 0.703147 -0.658592 0.268031
vn -0.106699 -0.313660 0.943521
vn -0.948008 0.044676 0.315095
vn -0.658114 -0.078800 -0.748783
vn 0.362357 -0.513443 -0.777865
vn 0.689191 -0.430092 0.583127
vn -0.331280 0.004551 0.943521
vn -0.961964 0.273176 0.000000
vn -0.331280 0.004551 -0.943521
vn 0.689191 -0.430092 -0.583127
vn 0.635535 0.448528 0.628425
vn -0.174312 0.793463 0.583122
vn -0.384928 0.883170 -0.268032
vn 0.294743 0.593680 -0.748779
vn 0.925429 0.325051 -0.194736
vn -0.294744 -0.593680 0.748779
vn -0.138805 -0.804615 0.577345
vn 0.174313 -0.793463 0.583122
vn 0.384929 -0.883170 -0.268032
vn 0.247115 -0.968986 0.000000
vn -0.064922 -0.997890 0.000000
vn -0.925429 -0.325051 0.194736
vn -0.763237 -0.538653 0.356821
vn -0.635534 -0.448528 0.628425
vn -0.635534 -0.448528 -0.628425
vn -0.763237 -0.538653 -0.356821
vn -0.925429 -0.325051 -0.194736
vn 0.174313 -0.793463 -0.583122
vn -0.138805 -0.804615 -0.577345
vn -0.294744 -0.593680 -0.748779
vn 0.961964 -0.273176 0.000000
vn 0.830177 -0.557500 0.000000
vn 0.703147 -0.658592 -0.268031
vn 0.331280 -0.004551 0.943521
vn 0.205744 -0.291536 0.934171
vn 0.362357 -0.513443 0.777865
vn -0.689191 0.430092 0.583127
vn -0.804614 0.138803 0.577348
vn -0.658114 -0.078800 0.748783
vn -0.689191 0.430092 -0.583127
vn -0.804614 0.138803 -0.577348
vn -0.948008 0.044676 -0.315095
vn 0.331280 -0.004551 -0.943521
vn 0.205744 -0.291536 -0.934171
vn -0.106699 -0.313660 -0.943521
vn 0.658114 0.078800 0.748783
vn 0.804614 -0.138803 0.577348
vn 0.948008 -0.044676 0.315095
vn -0.362357 0.513443 0.777865
vn -0.205744 0.291536 0.934171
vn 0.106698 0.313660 0.943521
vn -0.703147 0.658592 -0.268031
vn -0.830177 0.557500 0.000000
vn -0.703147 0.658592 0.268031
vn 0.106698 0.313660 -0.943521
vn -0.205744 0.291536 -0.934171
vn -0.362357 0.513443 -0.777865
vn 0.948008 -0.044676 -0.315095
vn 0.804614 -0.138803 -0.577348
vn 0.658114 0.078800 -0.748783
vn 0.616328 0.763031 0.194737
vn 0.763237 0.538653 0.356821
vn 0.925429 0.325051 0.194736
vn 0.275537 0.908183 0.315091
vn 0.138805 0.804615 0.577345
vn 0.294743 0.593680 0.748779
vn 0.064922 0.997890 0.000000
vn -0.247115 0.968986 0.000000
vn -0.384928 0.883170 0.268032
vn 0.275537 0.908183 -0.315091
vn 0.138805 0.804615 -0.577345
vn -0.174312 0.793463 -0.583122
vn 0.616328 0.763031 -0.194737
vn 0.763237 0.538653 -0.356821
vn 0.635535 0.448528 -0.628425
vn 0.195090 0.000000 -0.980785
vn 0.555570 0.000000 -0.831470
vn 0.831470 0.000000 -0.555570
vn 0.980785 0.000000 -0.195090
vn 0.980785 0.000000 0.195090
vn 0.831470 0.000000 0.555570
vn 0.555570 0.000000 0.831470
vn 0.195090 0.000000 0.980785
vn -0.195090 0.000000 0.980785
vn -0.555570 0.000000 0.831470
vn -0.831470 0.000000 0.555570
vn -0.980785 0.000000 0.195091
vn -0.980785 -0.000000 -0.195091
vn -0.831470 -0.000000 -0.555570
vn -0.000000 1.000000 0.000000
vn -0.195090 -0.000000 -0.980785
vn -0.555570 -0.000000 -0.831470
vn 0.000000 -1.000000 -0.000000
usemtl None
s off
f 1/1/1 13/2/1 15/3/1
f 2/4/2 13/5/2 17/6/2
f 1/1/3 15/3/3 19/7/3
f 1/1/4 19/7/4 21/8/4
f 1/1/5 21/8/5 16/9/5
f 2/4/6 17/6/6 24/10/6
f 3/11/7 14/12/7 26/13/7
f 4/14/8 18/15/8 28/16/8
f 5/17/9 20/18/9 30/19/9
f 6/20/10 22/21/10 32/22/10
f 2/4/11 24/10/11 25/23/11
f 3/11/12 26/13/12 27/24/12
f 4/14/13 28/16/13 29/25/13
f 5/17/14 30/19/14 31/26/14
f 6/20/15 32/22/15 23/27/15
f 7/28/16 33/29/16 39/30/16
f 8/31/17 34/32/17 40/33/17
f 9/34/18 35/35/18 41/36/18
f 10/37/19 36/38/19 42/39/19
f 11/40/20 37/41/20 38/42/20
f 15/3/21 14/12/21 3/11/21
f 15/3/22 13/2/22 14/12/22
f 13/5/23 2/4/23 14/43/23
f 17/6/24 16/44/24 6/20/24
f 17/6/25 13/5/25 16/44/25
f 13/2/26 1/1/26 16/9/26
f 19/7/27 18/15/27 4/14/27
f 19/7/28 15/3/28 18/15/28
f 15/3/29 3/11/29 18/15/29
f 21/8/30 20/18/30 5/17/30
f 21/8/31 19/7/31 20/18/31
f 19/7/32 4/14/32 20/18/32
f 16/44/33 22/21/33 6/20/33
f 16/9/34 21/8/34 22/45/34
f 21/8/35 5/17/35 22/45/35
f 24/10/36 23/27/36 11/40/36
f 24/10/37 17/6/37 23/27/37
f 17/6/38 6/20/38 23/27/38
f 26/46/39 25/23/39 7/28/39
f 26/46/40 14/43/40 25/23/40
f 14/43/41 2/4/41 25/23/41
f 28/16/42 27/24/42 8/31/42
f 28/16/43 18/15/43 27/24/43
f 18/15/44 3/11/44 27/24/44
f 30/19/45 29/25/45 9/34/45
f 30/19/46 20/18/46 29/25/46
f 20/18/47 4/14/47 29/25/47
f 32/22/48 31/47/48 10/37/48
f 32/22/49 22/21/49 31/47/49
f 22/45/50 5/17/50 31/26/50
f 25/23/51 33/29/51 7/28/51
f 25/23/52 24/10/52 33/29/52
f 24/10/53 11/40/53 33/29/53
f 27/24/54 34/32/54 8/31/54
f 27/24/55 26/13/55 34/32/55
f 26/46/56 7/28/56 34/48/56
f 29/25/57 35/35/57 9/34/57
f 29/25/58 28/16/58 35/35/58
f 28/16/59 8/31/59 35/35/59
f 31/47/60 36/38/60 10/37/60
f 31/26/61 30/19/61 36/49/61
f 30/19/62 9/34/62 36/49/62
f 23/27/63 37/41/63 11/40/63
f 23/27/64 32/22/64 37/41/64
f 32/22/65 10/37/65 37/41/65
f 39/30/66 38/42/66 12/50/66
f 39/30/67 33/29/67 38/42/67
f 33/29/68 11/40/68 38/42/68
f 40/51/69 39/30/69 12/50/69
f 40/51/70 34/48/70 39/30/70
f 34/48/71 7/28/71 39/30/71
f 41/52/72 40/51/72 12/50/72
f 41/36/73 35/35/73 40/33/73
f 35/35/74 8/31/74 40/33/74
f 42/39/75 41/52/75 12/50/75
f 42/39/76 36/38/76 41/52/76
f 36/49/77 9/34/77 41/36/77
f 38/42/78 42/39/78 12/50/78
f 38/42/79 37/41/79 42/39/79
f 37/41/80 10/37/80 42/39/80
f 43/53/81 44/54/81 45/55/81
f 45/55/82 46/56/82 47/57/82
f 47/57/83 48/58/83 49/59/83
f 49/59/84 50/60/84 51/61/84
f 51/61/85 52/62/85 53/63/85
f 53/63/86 54/64/86 55/65/86
f 55/65/87 56/66/87 57/67/87
f 57/67/88 58/68/88 59/69/88
f 59/69/89 60/70/89 61/71/89
f 61/71/90 62/72/90 63/73/90
f 63/73/91 64/74/91 65/75/91
f 65/75/92 66/76/92 67/77/92
f 67/77/93 68/78/93 69/79/93
f 69/79/94 70/80/94 71/81/94
f 46/56/95 44/54/95 48/82/95
f 73/83/96 74/84/96 43/53/96
f 71/81/97 72/85/97 73/83/97
f 43/53/98 45/55/98 73/83/98
f 44/54/81 46/56/81 45/55/81
f 46/56/82 48/58/82 47/57/82
f 48/58/83 50/60/83 49/59/83
f 50/60/84 52/62/84 51/61/84
f 52/62/85 54/86/85 53/63/85
f 54/64/86 56/66/86 55/65/86
f 56/66/87 58/68/87 57/67/87
f 58/68/88 60/70/88 59/69/88
f 60/70/89 62/72/89 61/71/89
f 62/72/90 64/74/90 63/73/90
f 64/74/91 66/76/91 65/75/91
f 66/76/92 68/87/92 67/77/92
f 68/78/93 70/80/93 69/79/93
f 70/80/94 72/85/94 71/81/94
f 74/84/95 72/88/95 70/89/95
f 74/84/95 70/89/95 68/90/95
f 74/84/95 68/90/95 66/91/95
f 74/84/95 66/91/95 64/92/95
f 74/84/95 64/92/95 62/93/95
f 52/94/95 56/95/95 54/96/95
f 52/94/95 58/97/95 56/95/95
f 48/82/95 52/94/95 50/98/95
f 48/82/95 44/54/95 52/94/95
f 52/94/95 44/54/95 58/97/95
f 58/97/95 44/54/95 60/99/95
f 44/54/95 74/84/95 60/99/95
f 74/84/95 62/93/95 60/99/95
f 74/84/96 44/54/96 43/53/96
f 72/85/97 74/84/97 73/83/97
f 69/79/98 65/75/98 67/77/98
f 45/55/98 47/57/98 73/83/98
f 47/57/98 49/59/98 73/83/98
f 49/59/98 51/61/98 73/83/98
f 51/61/98 53/63/98 55/65/98
f 73/83/98 51/61/98 55/65/98
f 71/81/98 73/83/98 69/79/98
f 73/83/98 55/65/98 69/79/98
f 69/79/98 55/65/98 65/75/98
f 55/65/98 57/67/98 65/75/98
f 65/75/98 61/71/98 63/73/98
f 57/67/98 59/69/98 65/75/98
f 59/69/98 61/71/98 65/75/98
