# Blender v2.68 (sub 0) OBJ File: 'Wall.blend'
# www.blender.org
mtllib wall.mtl
o Cube_Cube.001
v -0.999980 0.006232 6.000000
v -0.999980 0.006232 -6.000000
v 1.000020 0.006232 -6.000000
v 1.000020 0.006232 6.000000
v -0.999980 7.534775 6.000000
v -0.999980 7.534775 -6.000000
v 1.000020 7.534775 -6.000000
v 1.000020 7.534775 6.000000
vt 0.000140 0.000140
vt 0.703069 0.000140
vt 0.000140 0.441142
vt 0.703069 0.882425
vt 0.000140 0.882425
vt 0.703069 0.441423
vt 0.000140 0.882705
vt 0.703069 0.882705
vt 0.000140 0.999860
vt 0.703069 0.441142
vt 0.000140 0.441423
vt 0.703069 0.999860
vn -1.000000 0.000000 0.000000
vn 1.000000 -0.000000 0.000000
vn -0.000000 1.000000 0.000000
usemtl Material.002
s off
f 5/1/1 6/2/1 1/3/1
f 7/4/2 8/5/2 3/6/2
f 8/7/3 7/8/3 5/9/3
f 6/2/1 2/10/1 1/3/1
f 8/5/2 4/11/2 3/6/2
f 7/8/3 6/12/3 5/9/3
